<?xml version="1.0" encoding="UTF-8" standalone="no"?>
<svg
   xmlns:dc="http://purl.org/dc/elements/1.1/"
   xmlns:cc="http://creativecommons.org/ns#"
   xmlns:rdf="http://www.w3.org/1999/02/22-rdf-syntax-ns#"
   xmlns:svg="http://www.w3.org/2000/svg"
   xmlns="http://www.w3.org/2000/svg"
   xmlns:sodipodi="http://sodipodi.sourceforge.net/DTD/sodipodi-0.dtd"
   xmlns:inkscape="http://www.inkscape.org/namespaces/inkscape"
   viewBox="0 0 16 15.626464"
   id="svg2"
   version="1.1"
   inkscape:version="0.91 r"
   sodipodi:docname="github.svg"
   width="16"
   height="15.626464">
  <metadata
     id="metadata10">
    <rdf:RDF>
      <cc:Work
         rdf:about="">
        <dc:format>image/svg+xml</dc:format>
        <dc:type
           rdf:resource="http://purl.org/dc/dcmitype/StillImage" />
        <dc:title></dc:title>
      </cc:Work>
    </rdf:RDF>
  </metadata>
  <defs
     id="defs8" />
  <sodipodi:namedview
     pagecolor="#ffffff"
     bordercolor="#666666"
     borderopacity="1"
     objecttolerance="10"
     gridtolerance="10"
     guidetolerance="10"
     inkscape:pageopacity="0"
     inkscape:pageshadow="2"
     inkscape:window-width="640"
     inkscape:window-height="480"
     id="namedview6"
     showgrid="false"
     inkscape:zoom="4.19"
     inkscape:cx="-70.188999"
     inkscape:cy="-18.739431"
     inkscape:current-layer="svg2"
     fit-margin-top="0"
     fit-margin-left="0"
     fit-margin-right="0"
     fit-margin-bottom="0" />
  <path
     d="M 7.99996,0 C 12.430755,0 16,3.5692445 16,8.00004 c 0,3.53848 -2.3077,6.553882 -5.476952,7.600038 -0.276926,0.09231 -0.523078,-0.06151 -0.523078,-0.400002 l 0,-2.184624 c 0,-1.07693 -0.5538517,-1.476932 -0.5538517,-1.476932 1.7538577,-0.184614 3.6615557,-0.861542 3.6615557,-3.938482 0,-1.3538557 -0.830768,-2.1538597 -0.830768,-2.1538597 0,0 0.430766,-0.8923066 -0.06151,-2.1230861 0,0 -0.676927,-0.2153878 -2.2153973,0.8307775 -1.2923176,-0.3692374 -2.7077025,-0.3692374 -4.00002,0 C 4.4615068,3.1077044 3.7845789,3.3230922 3.7845789,3.3230922 3.2922742,4.5538717 3.7230675,5.4461783 3.7230675,5.4461783 c 0,0 -0.8307686,0.800004 -0.8307686,2.1538597 0,3.07694 1.9076984,3.753868 3.6615561,3.938482 0,0 -0.4307755,0.30769 -0.5230782,1.07693 -0.461549,0.215388 -1.6307815,0.553843 -2.3384739,-0.676928 0,0 -0.400002,-0.769239 -1.200006,-0.830777 0,0 -0.800004,0 -0.061511,0.492313 0,0 0.5230782,0.246152 0.8923067,1.169233 0,0 0.4923135,1.569243 2.7077113,1.076929 l 0,1.353856 c 0,0.338464 -0.2769258,0.492314 -0.5538517,0.400002 C 2.3077004,14.553922 0,11.53852 0,8.00004 0,3.5692445 3.5692445,0 8.00004,0 Z"
     id="path4"
     inkscape:connector-curvature="0" />
</svg>
