<?xml version="1.0" encoding="UTF-8" standalone="no"?>
<svg
   xmlns:dc="http://purl.org/dc/elements/1.1/"
   xmlns:cc="http://creativecommons.org/ns#"
   xmlns:rdf="http://www.w3.org/1999/02/22-rdf-syntax-ns#"
   xmlns:svg="http://www.w3.org/2000/svg"
   xmlns="http://www.w3.org/2000/svg"
   xmlns:sodipodi="http://sodipodi.sourceforge.net/DTD/sodipodi-0.dtd"
   xmlns:inkscape="http://www.inkscape.org/namespaces/inkscape"
   viewBox="0 0 22 15.473577"
   height="15.473577"
   width="22"
   xml:space="preserve"
   id="svg2"
   version="1.1"
   inkscape:version="0.91 r"
   sodipodi:docname="youtube.svg"><sodipodi:namedview
     pagecolor="#ffffff"
     bordercolor="#666666"
     borderopacity="1"
     objecttolerance="10"
     gridtolerance="10"
     guidetolerance="10"
     inkscape:pageopacity="0"
     inkscape:pageshadow="2"
     inkscape:window-width="640"
     inkscape:window-height="480"
     id="namedview385"
     showgrid="false"
     inkscape:zoom="8.38"
     inkscape:cx="39.836934"
     inkscape:cy="7.1732164"
     inkscape:current-layer="svg2"
     fit-margin-top="0"
     fit-margin-left="0"
     fit-margin-right="0"
     fit-margin-bottom="0" /><metadata
     id="metadata8"><rdf:RDF><cc:Work
         rdf:about=""><dc:format>image/svg+xml</dc:format><dc:type
           rdf:resource="http://purl.org/dc/dcmitype/StillImage" /><dc:title></dc:title></cc:Work></rdf:RDF></metadata><defs
     id="defs6"><clipPath
       id="clipPath566"
       clipPathUnits="userSpaceOnUse"><path
         id="path564"
         d="m 208.204,102.117 24.318,0 0,-14.24 -24.318,0 z"
         inkscape:connector-curvature="0" /></clipPath></defs><g
     id="g4140"
     transform="scale(0.18333333,0.18333333)"><path
       inkscape:connector-curvature="0"
       d="m 47.60676,57.76533 32.424,-16.8 -32.424,-16.916 z"
       style="fill:#ffffff;fill-opacity:1;fill-rule:nonzero;stroke:none"
       id="path558" /><g
       transform="matrix(1.3333333,0,0,-1.3333333,-229.9987,160.20546)"
       id="g574"><g
         clip-path="url(#clipPath566)"
         id="g572"
         style="opacity:0.119995"><g
           transform="translate(208.2041,102.1172)"
           id="g570"><path
             inkscape:connector-curvature="0"
             d="m 0,0 21.326,-14.24 2.992,1.552 z"
             style="fill:#3b1211;fill-opacity:1;fill-rule:evenodd;stroke:none"
             id="path568" /></g></g></g><path
       inkscape:connector-curvature="0"
       d="m 47.61196,57.76533 -0.005,-33.716 32.424,16.916 z M 118.80262,18.208 c 0,0 -1.17333,-8.26934 -4.77199,-11.912 C 109.46929,1.51733 104.35329,1.49466 102.00796,1.21466 85.21596,0 60.02663,0 60.02663,0 l -0.0533,0 c 0,0 -25.188,0 -41.98133,1.21466 C 15.64667,1.49466 10.53333,1.51733 5.96933,6.296 2.37067,9.93866 1.2,18.208 1.2,18.208 c 0,0 -1.2,9.71066 -1.2,19.42133 l 0,9.10533 c 0,9.70934 1.2,19.42 1.2,19.42 0,0 1.17067,8.26934 4.76933,11.912 4.564,4.78 10.56,4.62667 13.23067,5.128 9.60133,0.92134 40.8,1.20667 40.8,1.20667 0,0 25.216,-0.0387 42.008,-1.252 2.34533,-0.28 7.46133,-0.30267 12.02267,-5.08267 3.59866,-3.64266 4.77199,-11.912 4.77199,-11.912 0,0 1.19734,-9.71066 1.19734,-19.42 l 0,-9.10533 C 120,27.91866 118.80266,18.208 118.80266,18.208"
       style="fill:#e62d27;fill-opacity:1;fill-rule:nonzero;stroke:none"
       id="path578" /></g></svg>